<svg width="48" height="48" viewBox="0 0 48 48" fill="none" xmlns="http://www.w3.org/2000/svg">
<path d="M24 10C22.1435 10 20.363 10.7375 19.0503 12.0503C17.7375 13.363 17 15.1435 17 17C17 18.8565 17.7375 20.637 19.0503 21.9497C20.363 23.2625 22.1435 24 24 24C25.8565 24 27.637 23.2625 28.9497 21.9497C30.2625 20.637 31 18.8565 31 17C31 15.1435 30.2625 13.363 28.9497 12.0503C27.637 10.7375 25.8565 10 24 10ZM24 14C24.7956 14 25.5587 14.3161 26.1213 14.8787C26.6839 15.4413 27 16.2044 27 17C27 17.7956 26.6839 18.5587 26.1213 19.1213C25.5587 19.6839 24.7956 20 24 20C23.2044 20 22.4413 19.6839 21.8787 19.1213C21.3161 18.5587 21 17.7956 21 17C21 16.2044 21.3161 15.4413 21.8787 14.8787C22.4413 14.3161 23.2044 14 24 14ZM11 16C9.67392 16 8.40215 16.5268 7.46447 17.4645C6.52678 18.4021 6 19.6739 6 21C6 22.88 7.06 24.5 8.58 25.36C9.3 25.76 10.12 26 11 26C11.88 26 12.7 25.76 13.42 25.36C14.16 24.94 14.78 24.34 15.24 23.62C13.783 21.7211 12.9953 19.3934 13 17V16.44C12.4 16.16 11.72 16 11 16ZM37 16C36.28 16 35.6 16.16 35 16.44V17C35 19.4 34.22 21.72 32.76 23.62C33 24 33.26 24.3 33.56 24.6C34.4823 25.4942 35.7154 25.996 37 26C37.88 26 38.7 25.76 39.42 25.36C40.94 24.5 42 22.88 42 21C42 19.6739 41.4732 18.4021 40.5355 17.4645C39.5979 16.5268 38.3261 16 37 16ZM24 28C19.32 28 10 30.34 10 35V38H38V35C38 30.34 28.68 28 24 28ZM9.42 29.1C5.56 29.56 0 31.52 0 35V38H6V34.14C6 32.12 7.38 30.44 9.42 29.1ZM38.58 29.1C40.62 30.44 42 32.12 42 34.14V38H48V35C48 31.52 42.44 29.56 38.58 29.1ZM24 32C27.06 32 30.48 33 32.46 34H15.54C17.52 33 20.94 32 24 32Z" fill="#222566"/>
</svg>
